<?xml version="1.0" encoding="UTF-8" standalone="no"?>
<!DOCTYPE svg PUBLIC "-//W3C//DTD SVG 1.1//EN" "http://www.w3.org/Graphics/SVG/1.1/DTD/svg11.dtd">
<svg version="1.1" xmlns="http://www.w3.org/2000/svg" xmlns:xlink="http://www.w3.org/1999/xlink" preserveAspectRatio="xMidYMid meet" viewBox="0 0 640 640" width="640" height="640"><defs><path d="" id="e39zbttHzi"></path><path d="M399.46 311.93C399.46 353.63 364.15 387.48 320.67 387.48C277.19 387.48 241.89 353.63 241.89 311.93C241.89 270.23 277.19 236.37 320.67 236.37C364.15 236.37 399.46 270.23 399.46 311.93Z" id="b1vELJz1PM"></path><path d="M347.57 283.9C347.57 286.75 344.72 289.05 341.21 289.05C337.7 289.05 334.85 286.75 334.85 283.9C334.85 281.06 337.7 278.75 341.21 278.75C344.72 278.75 347.57 281.06 347.57 283.9Z" id="e14yArSng"></path><path d="M302.77 284.9C302.77 287.75 299.92 290.05 296.41 290.05C292.9 290.05 290.05 287.75 290.05 284.9C290.05 282.06 292.9 279.75 296.41 279.75C299.92 279.75 302.77 282.06 302.77 284.9Z" id="c7mkJ5fy9"></path><path d="M352.39 345.59C333.96 329.51 313.63 327.98 291.41 341" id="ko2iGT5mn"></path></defs><g><g><g><g><use xlink:href="#e39zbttHzi" opacity="1" fill-opacity="0" stroke="#000000" stroke-width="1" stroke-opacity="1"></use></g></g><g><use xlink:href="#b1vELJz1PM" opacity="1" fill="#ffc107" fill-opacity="1"></use><g><use xlink:href="#b1vELJz1PM" opacity="1" fill-opacity="0" stroke="#050008" stroke-width="4" stroke-opacity="1"></use></g></g><g><use xlink:href="#e14yArSng" opacity="1" fill="#0e0d01" fill-opacity="1"></use></g><g><use xlink:href="#c7mkJ5fy9" opacity="1" fill="#0e0d01" fill-opacity="1"></use></g><g><g><use xlink:href="#ko2iGT5mn" opacity="1" fill-opacity="0" stroke="#000000" stroke-width="2" stroke-opacity="1"></use></g></g></g></g></svg>